HIERARCHY
ROOT Hips
{
	OFFSET 0.000000 0.000000 0.000000
	CHANNELS 6 Xposition Yposition Zposition Xrotation Yrotation Zrotation
	JOINT LeftUpLeg_virtual
	{
		OFFSET 0.000000 0.000000 0.000000
		CHANNELS 3 Xrotation Yrotation Zrotation
		JOINT LeftUpLeg
		{
			OFFSET 15.427100 -6.655098 0.678600
			CHANNELS 3 Xrotation Yrotation Zrotation
			JOINT LeftLeg
			{
				OFFSET 4.081073 -39.591068 13.024000
				CHANNELS 3 Xrotation Yrotation Zrotation
				JOINT LeftFoot
				{
					OFFSET -4.081074 -37.707932 -15.979700
					CHANNELS 3 Xrotation Yrotation Zrotation
					JOINT LeftToeBase
					{
						OFFSET 5.346399 -15.068900 20.645000
						CHANNELS 3 Xrotation Yrotation Zrotation
						JOINT LeftToe_End
						{
							OFFSET 2.754700 0.931300 11.300900
							CHANNELS 3 Xrotation Yrotation Zrotation
							End Site
							{
								OFFSET 0 0 0
							}
						}
					}
				}
			}
		}
	}
	JOINT RightUpLeg_virtual
	{
		OFFSET 0.000000 0.000000 0.000000
		CHANNELS 3 Xrotation Yrotation Zrotation
		JOINT RightUpLeg
		{
			OFFSET -15.569500 -6.655098 0.678600
			CHANNELS 3 Xrotation Yrotation Zrotation
			JOINT RightLeg
			{
				OFFSET -4.081825 -39.591045 13.023800
				CHANNELS 3 Xrotation Yrotation Zrotation
				JOINT RightFoot
				{
					OFFSET 4.081824 -37.707954 -15.979600
					CHANNELS 3 Xrotation Yrotation Zrotation
					JOINT RightToeBase
					{
						OFFSET -5.346400 -15.068900 20.645000
						CHANNELS 3 Xrotation Yrotation Zrotation
						JOINT RightToe_End
						{
							OFFSET -2.754700 0.931300 11.300900
							CHANNELS 3 Xrotation Yrotation Zrotation
							End Site
							{
								OFFSET 0 0 0
							}
						}
					}
				}
			}
		}
	}
	JOINT Spine_virtual
	{
		OFFSET 0.000000 0.000000 0.000000
		CHANNELS 3 Xrotation Yrotation Zrotation
		JOINT Spine
		{
			OFFSET -0.279200 12.230698 -2.892100
			CHANNELS 3 Xrotation Yrotation Zrotation
			JOINT Spine1
			{
				OFFSET -0.232667 10.192268 -1.242267
				CHANNELS 3 Xrotation Yrotation Zrotation
				JOINT Spine1_split
				{
					OFFSET -0.232667 10.192268 -1.242267
					CHANNELS 3 Xrotation Yrotation Zrotation
					JOINT Spine2
					{
						OFFSET -0.232667 10.192268 -1.242267
						CHANNELS 3 Xrotation Yrotation Zrotation
						JOINT Neck_virtual
						{
							OFFSET 0.000000 0.000000 0.000000
							CHANNELS 3 Xrotation Yrotation Zrotation
							JOINT Neck
							{
								OFFSET -0.418800 17.814194 8.416900
								CHANNELS 3 Xrotation Yrotation Zrotation
								JOINT Head
								{
									OFFSET 0.000000 7.031097 3.806800
									CHANNELS 3 Xrotation Yrotation Zrotation
									JOINT HeadTop_End
									{
										OFFSET 0.000000 24.646606 12.978600
										CHANNELS 3 Xrotation Yrotation Zrotation
										End Site
										{
											OFFSET 0 0 0
										}
									}
								}
							}
						}
						JOINT LeftShoulder_virtual
						{
							OFFSET 0.000000 0.000000 0.000000
							CHANNELS 3 Xrotation Yrotation Zrotation
							JOINT LeftShoulder
							{
								OFFSET 8.476499 7.247704 -3.868750
								CHANNELS 3 Xrotation Yrotation Zrotation
								JOINT LeftShoulder_split
								{
									OFFSET 8.476499 7.247704 -3.868750
									CHANNELS 3 Xrotation Yrotation Zrotation
									JOINT LeftArm
									{
										OFFSET 9.308998 -2.777710 0.208600
										CHANNELS 3 Xrotation Yrotation Zrotation
										JOINT LeftForeArm
										{
											OFFSET 29.972298 0.000000 0.000000
											CHANNELS 3 Xrotation Yrotation Zrotation
											JOINT LeftHand
											{
												OFFSET 26.026505 0.000000 0.000000
												CHANNELS 3 Xrotation Yrotation Zrotation
												End Site
												{
													OFFSET 0 0 0
												}
											}
										}
									}
								}
							}
						}
						JOINT RightShoulder_virtual
						{
							OFFSET 0.000000 0.000000 0.000000
							CHANNELS 3 Xrotation Yrotation Zrotation
							JOINT RightShoulder
							{
								OFFSET -7.570500 7.247704 -3.868750
								CHANNELS 3 Xrotation Yrotation Zrotation
								JOINT RightShoulder_split
								{
									OFFSET -7.570500 7.247704 -3.868750
									CHANNELS 3 Xrotation Yrotation Zrotation
									JOINT RightArm
									{
										OFFSET -9.308998 -2.777710 0.208500
										CHANNELS 3 Xrotation Yrotation Zrotation
										JOINT RightForeArm
										{
											OFFSET -29.972300 0.000000 0.000000
											CHANNELS 3 Xrotation Yrotation Zrotation
											JOINT RightHand
											{
												OFFSET -26.026505 0.000000 0.000000
												CHANNELS 3 Xrotation Yrotation Zrotation
												End Site
												{
													OFFSET 0 0 0
												}
											}
										}
									}
								}
							}
						}
					}
				}
			}
		}
	}
}
MOTION
Frames: 11
Frame Time: 0.03333333
-0.015362 90.056122 -48.177490 0.000000 0.000000 0.000000 175.037736 -67.233213 178.668337 -26.852204 10.552679 16.928923 35.229443 0.358952 -2.423672 -3.109525 -2.845769 -0.127270 0.598054 6.379278 -7.934639 0.000000 0.000000 0.000000 174.159141 -65.855618 177.865311 -8.823654 -11.703559 5.700828 16.874525 6.799321 -0.494106 -10.321257 2.758380 -7.664310 0.393240 -3.777254 0.347961 0.000000 0.000000 0.000000 172.763515 -66.962519 175.214733 4.406948 1.890193 3.395814 -3.430999 1.390241 -2.317270 0.643278 -1.339216 0.137792 0.000000 0.000000 0.000000 -5.124145 1.609165 -1.968809 1.387858 19.389316 8.103962 4.724156 26.590101 -14.871815 0.000000 0.000000 0.000000 -5.464810 2.190338 -2.221471 0.850105 0.825467 1.458108 -0.196021 -0.764136 -0.628119 12.291555 0.663410 -67.352393 7.670855 -21.367770 -7.995768 0.000000 0.000000 0.000000 -4.549065 1.869294 -2.687180 2.748022 -5.558239 17.920808 -6.295769 -1.355854 -0.873688 11.451569 32.949509 53.619898 15.236113 29.935681 -1.185696 0.000000 0.000000 0.000000 
-1.087655 90.454086 -49.916801 0.000000 0.000000 0.000000 174.511907 -61.594523 177.967054 -28.456644 3.457268 12.068023 34.629404 0.811738 -1.370327 -0.962015 -2.360258 -0.421667 -0.434055 7.115244 -8.274803 0.000000 0.000000 0.000000 173.862069 -59.755993 177.527572 -8.420083 -9.393279 7.544700 16.615702 9.616330 0.567358 -9.719041 2.766667 -9.839693 -0.157373 -3.644184 0.158022 0.000000 0.000000 0.000000 173.298756 -61.136210 175.413383 4.771178 2.413439 3.149966 -3.348341 1.860897 -2.407411 0.677754 -1.133471 0.263826 0.000000 0.000000 0.000000 -5.052618 2.038558 -2.119280 1.178711 17.626862 8.110308 3.955164 24.150289 -13.702503 0.000000 0.000000 0.000000 -5.478904 2.634379 -2.295865 0.762079 0.734272 1.832154 0.035021 -0.881295 -0.579627 13.379970 1.426105 -68.860021 8.747957 -20.350812 -8.063912 0.000000 0.000000 0.000000 -4.484304 2.287683 -2.821468 2.782012 -5.950385 18.061949 -6.134378 -1.503709 -0.691070 10.381265 34.993306 53.779485 15.474680 29.135330 -1.612437 0.000000 0.000000 0.000000 
-2.313605 90.715202 -51.847092 0.000000 0.000000 0.000000 174.100238 -55.856399 177.313828 -30.750461 -2.687999 7.625869 32.612760 0.760402 -0.275429 1.296977 -2.049000 -1.804886 -1.886195 7.790300 -8.583397 0.000000 0.000000 0.000000 173.913282 -53.594889 177.568990 -7.902659 -7.279799 9.374836 17.157755 12.117410 1.648650 -9.278143 2.683458 -12.267176 -0.193158 -3.469618 0.039703 0.000000 0.000000 0.000000 173.878175 -55.277575 175.673654 5.090053 2.892747 2.707724 -3.148443 2.232323 -2.286591 0.740727 -0.771813 0.311521 0.000000 0.000000 0.000000 -4.851494 2.391950 -2.074204 1.093704 15.587456 7.657790 2.794304 20.850474 -11.927185 0.000000 0.000000 0.000000 -5.377123 2.992609 -2.142572 0.671829 0.610524 2.104311 0.306143 -1.073779 -0.613347 14.232351 1.895032 -70.328477 9.530509 -18.506753 -8.264216 0.000000 0.000000 0.000000 -4.324463 2.610617 -2.731932 2.825224 -6.363347 17.987257 -5.905861 -1.600314 -0.447642 9.113004 37.265929 54.236791 15.524605 28.010116 -2.006443 0.000000 0.000000 0.000000 
-3.646924 90.673668 -53.879524 0.000000 0.000000 0.000000 174.035747 -50.006130 177.050033 -33.636400 -7.461111 4.068046 29.679443 0.136919 0.660519 4.247783 -2.019609 -4.182638 -2.835532 8.331453 -9.043770 0.000000 0.000000 0.000000 174.194781 -47.500537 177.801381 -7.441210 -5.423873 11.129690 18.566437 14.462085 2.533688 -8.531726 2.555130 -14.459338 -0.616220 -3.259516 -0.188566 0.000000 0.000000 0.000000 174.567122 -49.624036 176.138530 5.408306 3.310201 2.147362 -2.842946 2.486541 -1.984982 0.922104 -0.314167 0.249885 0.000000 0.000000 0.000000 -4.526310 2.649643 -1.855473 1.196147 13.313578 6.792822 1.451464 16.841928 -9.761425 0.000000 0.000000 0.000000 -5.158772 3.255043 -1.800847 0.586944 0.536706 2.237966 0.647541 -1.400143 -0.694854 14.945945 2.202134 -71.581086 9.953312 -16.389625 -8.571976 0.000000 0.000000 0.000000 -4.072642 2.826778 -2.457142 2.877940 -6.778390 17.650838 -5.571600 -1.609524 -0.132410 7.754517 39.578942 55.016030 15.422374 26.883841 -2.403801 0.000000 0.000000 0.000000 
-4.968598 90.347565 -56.220245 0.000000 0.000000 0.000000 174.220886 -44.215018 177.073528 -37.048787 -10.712852 1.497993 26.459465 -0.788106 1.232398 8.367508 -2.113170 -7.133167 -2.389634 8.645091 -9.823118 0.000000 0.000000 0.000000 174.601383 -41.688148 177.996109 -7.031843 -3.869348 12.695334 20.218270 16.743174 3.116832 -7.354552 2.621124 -16.023878 -1.669267 -2.957547 -0.599206 0.000000 0.000000 0.000000 175.276943 -44.213433 176.698592 5.759799 3.659046 1.598292 -2.457047 2.630414 -1.578154 0.917673 0.307506 0.182147 0.000000 0.000000 0.000000 -4.128413 2.801656 -1.520557 1.437401 10.857679 5.671461 0.171549 12.391436 -7.447859 0.000000 0.000000 0.000000 -4.830879 3.427107 -1.354383 0.519543 0.577835 2.199178 1.027854 -1.892299 -0.799137 15.652338 2.443245 -72.482685 10.074661 -14.629475 -8.915251 0.000000 0.000000 0.000000 -3.735398 2.940766 -2.075121 2.944011 -7.172835 17.076557 -5.095474 -1.502692 0.173490 6.485968 41.744866 56.012776 15.214106 26.049235 -2.847869 0.000000 0.000000 0.000000 
-6.108705 89.847717 -58.852661 0.000000 0.000000 0.000000 174.506907 -38.700794 177.174424 -40.488583 -12.648633 -0.313593 23.102802 -1.692099 1.479693 13.191589 -2.204693 -10.167092 -0.715042 8.692165 -10.764168 0.000000 0.000000 0.000000 174.935748 -36.387587 177.900774 -6.404911 -2.635933 13.997749 21.232061 18.888359 3.425569 -6.029303 3.167301 -17.282629 -3.070799 -2.500224 -1.040263 0.000000 0.000000 0.000000 175.898449 -39.150026 177.214722 6.177928 3.921610 1.168054 -2.013251 2.678539 -1.153322 0.679250 0.782695 0.065893 0.000000 0.000000 0.000000 -3.704444 2.855364 -1.156010 1.778018 8.351215 4.463451 -0.880208 7.770201 -5.167617 0.000000 0.000000 0.000000 -4.432508 3.506504 -0.909135 0.467933 0.761667 1.976878 1.502666 -2.465972 -0.834086 16.414661 2.726817 -72.975025 10.005842 -13.650364 -9.209626 0.000000 0.000000 0.000000 -3.364752 2.962801 -1.684104 2.989497 -7.511052 16.328122 -4.502700 -1.261720 0.529653 5.425459 43.636586 57.071234 14.935556 25.633601 -3.337579 0.000000 0.000000 0.000000 
-6.959054 89.323929 -61.831230 0.000000 0.000000 0.000000 174.786194 -33.689177 177.273312 -43.338250 -13.377376 -1.528823 19.665744 -2.268649 1.489913 17.635688 -2.197293 -12.522160 0.865167 8.536965 -11.426796 0.000000 0.000000 0.000000 175.134424 -31.522508 177.548391 -5.341397 -1.833729 14.859172 21.385947 20.821666 3.552998 -4.971717 4.230010 -18.831188 -4.045945 -1.873921 -1.331827 0.000000 0.000000 0.000000 176.331907 -34.464810 177.537708 6.655890 4.072467 0.850378 -1.556668 2.639655 -0.805262 0.431789 0.938908 -0.105357 0.000000 0.000000 0.000000 -3.288811 2.825911 -0.838189 2.139685 5.920246 3.341017 -1.618596 3.325920 -3.076092 0.000000 0.000000 0.000000 -4.012745 3.508250 -0.555955 0.434505 1.005635 1.607806 2.055700 -2.967657 -0.841094 17.160540 3.052499 -73.084820 9.878778 -13.444988 -9.405848 0.000000 0.000000 0.000000 -3.006526 2.913246 -1.364340 2.989157 -7.765663 15.538071 -3.851270 -0.933036 0.915727 4.714537 45.189631 58.005395 14.650703 25.683200 -3.890935 0.000000 0.000000 0.000000 
-7.463474 88.921074 -64.993568 0.000000 0.000000 0.000000 174.886201 -29.251402 177.184014 -45.145723 -13.262287 -2.539849 16.101995 -2.437416 1.412760 20.524264 -1.911451 -13.683644 1.193091 8.271835 -11.530129 0.000000 0.000000 0.000000 175.117198 -27.153827 176.988998 -3.879743 -1.407304 14.992043 20.841726 22.549545 3.760271 -3.916844 5.519426 -20.386846 -4.574904 -1.117431 -1.331440 0.000000 0.000000 0.000000 176.503467 -30.169974 177.562953 7.144984 4.106528 0.616696 -1.122191 2.543915 -0.580764 0.186818 0.790724 -0.104706 0.000000 0.000000 0.000000 -2.934333 2.735427 -0.616173 2.446459 3.694957 2.418196 -2.035557 -0.661143 -1.275027 0.000000 0.000000 0.000000 -3.591438 3.440508 -0.344937 0.424796 1.221227 1.147081 2.622595 -3.323295 -0.809894 17.841641 3.354695 -72.885932 9.797471 -13.677793 -9.489787 0.000000 0.000000 0.000000 -2.689537 2.812254 -1.151882 2.922971 -7.908513 14.832843 -3.152180 -0.531784 1.392006 4.504716 46.474226 58.636129 14.412355 26.175728 -4.500778 0.000000 0.000000 0.000000 
-7.752810 88.640640 -68.146957 0.000000 0.000000 0.000000 174.769269 -25.397963 176.902801 -45.787737 -12.781468 -3.553735 12.821326 -2.403757 1.390827 21.318062 -1.391395 -13.492567 0.248160 7.932065 -11.209870 0.000000 0.000000 0.000000 174.881612 -23.213535 176.447186 -2.259711 -1.151187 14.584643 20.166936 24.336271 4.017025 -2.680354 6.744743 -21.246675 -5.457377 -0.381897 -0.984005 0.000000 0.000000 0.000000 176.435958 -26.374654 177.419081 7.544024 4.034279 0.372644 -0.748792 2.412941 -0.470411 0.087899 0.406811 -0.124612 0.000000 0.000000 0.000000 -2.663187 2.598406 -0.496608 2.648691 1.759004 1.747040 -2.225068 -3.978110 0.158679 0.000000 0.000000 0.000000 -3.215693 3.309900 -0.255373 0.439437 1.355175 0.688062 3.110098 -3.522783 -0.766588 18.278785 3.569605 -72.462030 9.812652 -13.934726 -9.462623 0.000000 0.000000 0.000000 -2.444686 2.677133 -1.032765 2.792564 -7.927096 14.301248 -2.504956 -0.057833 1.903232 4.906790 47.514225 58.844825 14.274271 27.106459 -5.145989 0.000000 0.000000 0.000000 
-7.928946 88.446846 -71.135811 0.000000 0.000000 0.000000 174.507030 -22.051687 176.636178 -45.690585 -12.227075 -4.459019 10.649482 -2.326506 1.368197 20.637133 -0.843947 -12.213079 -1.277259 7.511384 -10.772940 0.000000 0.000000 0.000000 174.579526 -19.672494 176.106237 -0.771035 -0.707376 13.995142 20.290904 26.112947 4.005843 -1.644749 7.541925 -21.186857 -6.785976 0.174563 -0.275326 0.000000 0.000000 0.000000 176.200589 -23.109038 177.261113 7.826884 3.874894 0.027578 -0.469401 2.261109 -0.424702 0.077988 0.113852 -0.054832 0.000000 0.000000 0.000000 -2.490289 2.419129 -0.434294 2.760587 0.133824 1.351898 -2.259393 -6.507213 1.205887 0.000000 0.000000 0.000000 -2.909599 3.134172 -0.219928 0.488279 1.396550 0.335116 3.418903 -3.626485 -0.779712 18.332631 3.628873 -71.920287 9.912270 -13.917012 -9.359984 0.000000 0.000000 0.000000 -2.257982 2.515634 -0.951295 2.622748 -7.829585 13.940322 -1.870708 0.365585 2.340039 5.953993 48.230363 58.552917 14.267242 28.459351 -5.798207 0.000000 0.000000 0.000000 
-8.134064 88.290665 -73.736725 0.000000 0.000000 0.000000 174.276894 -19.104406 176.481693 -45.300564 -11.889932 -5.149015 10.125885 -2.141232 1.330972 19.474133 -0.187388 -10.221399 -2.514179 7.023466 -10.375465 0.000000 0.000000 0.000000 174.325129 -16.699594 175.963677 0.637552 0.255820 13.852907 21.051196 27.304316 3.606580 -1.508100 7.528136 -20.814518 -8.030930 0.415694 0.782200 0.000000 0.000000 0.000000 175.952954 -20.297835 177.216061 7.970312 3.636140 -0.438364 -0.275343 2.102778 -0.360243 0.155672 0.035159 0.014739 0.000000 0.000000 0.000000 -2.402737 2.215843 -0.378708 2.850235 -1.193701 1.272201 -2.240908 -8.220607 1.892542 0.000000 0.000000 0.000000 -2.683887 2.923158 -0.154772 0.560577 1.401540 0.141423 3.491023 -3.729122 -0.769308 17.902047 3.583075 -71.330842 10.034651 -13.641737 -9.235454 0.000000 0.000000 0.000000 -2.137425 2.323512 -0.833532 2.443816 -7.648428 13.729250 -1.273212 0.673705 2.526522 7.462593 48.473357 57.892963 14.358651 30.140071 -6.385156 0.000000 0.000000 0.000000 
